<?xml version="1.0" ?><svg data-name="Layer 1" id="Layer_1" viewBox="0 0 512 512" xmlns="http://www.w3.org/2000/svg"><title/><path d="M396.53,193.83V141.65A30.59,30.59,0,0,0,366,111.09h-4.84a32.59,32.59,0,1,0-47.59,0h-7.24a30.43,30.43,0,0,0-22.13,9.59,32.28,32.28,0,0,0-56.34,0,30.46,30.46,0,0,0-22.15-9.6h-7.23a32.59,32.59,0,1,0-47.59,0H146a30.6,30.6,0,0,0-30.56,30.56v52.18A31.74,31.74,0,0,0,134,222.58a30.57,30.57,0,0,0-18.49,28v52.19A31.87,31.87,0,0,0,142,334.19v68.4a5.25,5.25,0,0,0,10.49,0V329.42a.43.43,0,0,0,0-.05V250.52a5.25,5.25,0,0,0-10.49,0V323.4A21.3,21.3,0,0,1,126,302.81V250.62A20.1,20.1,0,0,1,146,230.55h59.66a19.93,19.93,0,0,1,17.68,10.92v26.68s0,.06,0,.09a30.28,30.28,0,0,0-16.07,7.29v-25a5.25,5.25,0,0,0-10.49,0V402.59a5.25,5.25,0,0,0,10.49,0V374A31.72,31.72,0,0,0,223.39,382v68.4a5.24,5.24,0,0,0,10.48,0V377.13s0-.06,0-.1V298.29a5.24,5.24,0,1,0-10.48,0v72.86a21.29,21.29,0,0,1-16.06-20.58V298.39a20.09,20.09,0,0,1,20.07-20.07h57.27a20.08,20.08,0,0,1,20.05,19.87v31.18s0,.07,0,.11v4.33s0,.06,0,.1v16.86a21.28,21.28,0,0,1-16.07,20.39V298.29a5.24,5.24,0,1,0-10.48,0v78.84a.43.43,0,0,0,0,.05v73.17a5.24,5.24,0,0,0,10.48,0V382a31.7,31.7,0,0,0,16.06-7.9v28.54a5.25,5.25,0,0,0,10.49,0V350.8c0-.08,0-.15,0-.23V298.39c0-.07,0-.14,0-.2V250.52a5.25,5.25,0,0,0-10.49,0v25a30.28,30.28,0,0,0-16.08-7.29s0-.05,0-.08V241.49a19.92,19.92,0,0,1,17.68-10.94H366a20.09,20.09,0,0,1,20.07,20.07v52.19A21.3,21.3,0,0,1,370,323.4V250.52a5.25,5.25,0,0,0-10.49,0v78.85a.43.43,0,0,0,0,.05v73.17a5.25,5.25,0,0,0,10.49,0v-68.4a31.87,31.87,0,0,0,26.56-31.38V250.62a30.58,30.58,0,0,0-18.48-28A31.76,31.76,0,0,0,396.53,193.83ZM315.25,89a22.09,22.09,0,1,1,22.1,22.1A22.12,22.12,0,0,1,315.25,89ZM256,114.66a22.1,22.1,0,1,1-22.1,22.1A22.12,22.12,0,0,1,256,114.66ZM152.57,89a22.1,22.1,0,1,1,22.09,22.1A22.12,22.12,0,0,1,152.57,89ZM126,193.83V141.65A20.1,20.1,0,0,1,146,121.58h59.66a20,20,0,0,1,18.1,11.61,32,32,0,0,0-.36,3.57,32.36,32.36,0,0,0,8.78,22.09h-4.83a30.27,30.27,0,0,0-20.07,7.71v-25a5.25,5.25,0,0,0-10.49,0v32.68a32.2,32.2,0,0,0-44.29,0V141.54a5.25,5.25,0,0,0-10.49,0v72.88A21.3,21.3,0,0,1,126,193.83ZM152.57,198a22.1,22.1,0,1,1,22.09,22.1A22.12,22.12,0,0,1,152.57,198Zm125.54,47.76A22.1,22.1,0,1,1,256,223.64,22.12,22.12,0,0,1,278.11,245.73Zm10.52-20V189.31a5.24,5.24,0,1,0-10.48,0V222a32.2,32.2,0,0,0-44.3,0V189.31a5.24,5.24,0,1,0-10.48,0v36.44a30.46,30.46,0,0,0-16.06-5.56V189.41a20.09,20.09,0,0,1,20.07-20.07h57.27a20.08,20.08,0,0,1,20.05,19.87v31A30.49,30.49,0,0,0,288.63,225.75ZM315.25,198a22.09,22.09,0,1,1,22.1,22.1A22.13,22.13,0,0,1,315.25,198Zm70.8-4.14A21.3,21.3,0,0,1,370,214.42V141.54a5.25,5.25,0,0,0-10.49,0V174.2a32.2,32.2,0,0,0-44.28,0V141.54a5.25,5.25,0,0,0-10.49,0v25a30.32,30.32,0,0,0-20.05-7.69h-4.84a32.36,32.36,0,0,0,8.78-22.09,32.81,32.81,0,0,0-.36-3.59,20,20,0,0,1,18.08-11.59H366a20.09,20.09,0,0,1,20.07,20.07Z"/><path d="M256,371.89a5.23,5.23,0,0,0-5.24,5.24v73.22a5.24,5.24,0,0,0,10.48,0V377.13A5.23,5.23,0,0,0,256,371.89Z"/><path d="M337.35,328.67a5.24,5.24,0,0,0-5.25,5.24v68.68a5.25,5.25,0,0,0,10.49,0V333.91A5.24,5.24,0,0,0,337.35,328.67Z"/><path d="M174.66,328.67a5.24,5.24,0,0,0-5.24,5.24v68.68a5.25,5.25,0,0,0,10.49,0V333.91A5.24,5.24,0,0,0,174.66,328.67Z"/></svg>