<svg id="visual" viewBox="0 0 1366 768" width="1366" height="768" xmlns="http://www.w3.org/2000/svg" xmlns:xlink="http://www.w3.org/1999/xlink" version="1.1"><rect x="0" y="0" width="1366" height="768" fill="#ffc5df"></rect><path d="M0 584L28.5 571.5C57 559 114 534 171 526C228 518 285 527 341.8 528.5C398.7 530 455.3 524 512.2 523.3C569 522.7 626 527.3 683 543C740 558.7 797 585.3 854 574.3C911 563.3 968 514.7 1024.8 508.5C1081.7 502.3 1138.3 538.7 1195.2 539.5C1252 540.3 1309 505.7 1337.5 488.3L1366 471L1366 769L1337.5 769C1309 769 1252 769 1195.2 769C1138.3 769 1081.7 769 1024.8 769C968 769 911 769 854 769C797 769 740 769 683 769C626 769 569 769 512.2 769C455.3 769 398.7 769 341.8 769C285 769 228 769 171 769C114 769 57 769 28.5 769L0 769Z" fill="#B12459" stroke-linecap="round" stroke-linejoin="miter"></path></svg>