<svg id="visual" viewBox="0 0 1366 768" width="1366" height="768" xmlns="http://www.w3.org/2000/svg" xmlns:xlink="http://www.w3.org/1999/xlink" version="1.1"><rect x="0" y="0" width="1366" height="768" fill="#ffc5df"></rect><path d="M0 657L28.5 649.5C57 642 114 627 171 622.2C228 617.3 285 622.7 341.8 623.7C398.7 624.7 455.3 621.3 512.2 621C569 620.7 626 623.3 683 632.7C740 642 797 658 854 651.3C911 644.7 968 615.3 1024.8 611.7C1081.7 608 1138.3 630 1195.2 630.5C1252 631 1309 610 1337.5 599.5L1366 589L1366 769L1337.5 769C1309 769 1252 769 1195.2 769C1138.3 769 1081.7 769 1024.8 769C968 769 911 769 854 769C797 769 740 769 683 769C626 769 569 769 512.2 769C455.3 769 398.7 769 341.8 769C285 769 228 769 171 769C114 769 57 769 28.5 769L0 769Z" fill="#B12459" stroke-linecap="round" stroke-linejoin="miter"></path></svg>